<?xml version="1.0" encoding="UTF-8" standalone="no"?>
<!-- Created with Inkscape (http://www.inkscape.org/) -->

<svg
   xmlns:dc="http://purl.org/dc/elements/1.1/"
   xmlns:cc="http://creativecommons.org/ns#"
   xmlns:rdf="http://www.w3.org/1999/02/22-rdf-syntax-ns#"
   xmlns:svg="http://www.w3.org/2000/svg"
   xmlns="http://www.w3.org/2000/svg"
   xmlns:sodipodi="http://sodipodi.sourceforge.net/DTD/sodipodi-0.dtd"
   xmlns:inkscape="http://www.inkscape.org/namespaces/inkscape"
   width="1320"
   height="1260"
   id="svg2"
   sodipodi:version="0.32"
   inkscape:version="0.47 r22583"
   version="1.0"
   sodipodi:docname="bo-keep.svg">
  <title
     id="title2815">Bo-Keep Logo</title>
  <defs
     id="defs4">
    <inkscape:perspective
       sodipodi:type="inkscape:persp3d"
       inkscape:vp_x="0 : 630 : 1"
       inkscape:vp_y="0 : 1000 : 0"
       inkscape:vp_z="1320 : 630 : 1"
       inkscape:persp3d-origin="660 : 420 : 1"
       id="perspective9" />
  </defs>
  <sodipodi:namedview
     id="base"
     pagecolor="#ffffff"
     bordercolor="#666666"
     borderopacity="1.0"
     inkscape:pageopacity="0.0"
     inkscape:pageshadow="2"
     inkscape:zoom="0.39920635"
     inkscape:cx="88.8668"
     inkscape:cy="650.94998"
     inkscape:document-units="px"
     inkscape:current-layer="layer2"
     inkscape:window-width="1014"
     inkscape:window-height="689"
     inkscape:window-x="0"
     inkscape:window-y="25"
     showgrid="false"
     inkscape:window-maximized="0" />
  <metadata
     id="metadata7">
    <rdf:RDF>
      <cc:Work
         rdf:about="">
        <dc:format>image/svg+xml</dc:format>
        <dc:type
           rdf:resource="http://purl.org/dc/dcmitype/StillImage" />
        <dc:title>Bo-Keep Logo</dc:title>
        <cc:license
           rdf:resource="http://www.gnu.org/licenses/gpl.html" />
        <dc:rights>
          <cc:Agent>
            <dc:title>This logo is free software: you can redistribute it and/or modify it under the terms of the GNU General Public License as published by
    the Free Software Foundation, either version 3 of the License, or (at your option) any later version.</dc:title>
          </cc:Agent>
        </dc:rights>
        <dc:publisher>
          <cc:Agent>
            <dc:title>ParIT Worker Co-operative</dc:title>
          </cc:Agent>
        </dc:publisher>
        <dc:creator>
          <cc:Agent>
            <dc:title>ParIT Worker Co-operative</dc:title>
          </cc:Agent>
        </dc:creator>
        <dc:contributor>
          <cc:Agent>
            <dc:title>David Henry &lt;work@davidhenry.ca&gt;</dc:title>
          </cc:Agent>
        </dc:contributor>
        <dc:identifier>http://parit.ca</dc:identifier>
      </cc:Work>
    </rdf:RDF>
  </metadata>
  <g
     inkscape:label="Layer 1"
     inkscape:groupmode="layer"
     id="layer1" />
  <g
     inkscape:groupmode="layer"
     id="layer2"
     inkscape:label="trace">
    <path
       style="fill:#020202"
       d="M 423.09879,1104.4427 C 425.92791,1079.2716 445.38284,1053.0969 443.39412,1024.5252 C 449.1731,991.56376 435.85119,966.38832 406.33424,952.08589 C 338.55743,890.13796 304.71773,800.30937 284.65073,712.75588 C 274.45582,690.13201 285.28002,654.29612 260.0685,642.1446 C 189.32988,595.73553 153.21107,512.07541 138.07801,431.55437 C 129.87314,389.08792 130.04214,345.67769 133.5,302.74429 C 88.975115,287.48125 40.139713,267.25343 16,224.24664 C 34.154214,188.76906 73.720421,170.97941 108.73455,156.02541 C 146.5879,140.08537 187.48764,134.09318 226.93491,124.20625 C 261.06024,101.63826 306.15946,98.999788 343.5,114.93902 C 381.25738,98.618268 426.48856,102.17807 461.09459,124.41321 C 492.75008,130.89472 524.627,136.67791 555.57446,146.20213 C 705.63542,113.70159 866.05217,118.8556 1010.4625,173.25258 C 1034.6279,181.83062 1057.2526,194.94817 1080.1091,205.76892 C 1150.6135,208.20233 1228.0835,230.33027 1270.7466,290.54053 C 1282.8909,304.18479 1268.5577,322.95569 1264.1104,337.13055 C 1251.9055,365.1997 1231.0642,387.86744 1209.3132,408.84756 C 1229.2212,540.04677 1222.0275,677.11826 1177.1692,802.66082 C 1150.0188,875.71745 1108.0219,950.24575 1036.5,987.55481 C 1031.6155,1023.098 1035.6353,1060.7225 1054.6112,1091.8259 C 1060.1874,1121.6868 1016.6737,1094.7876 1001.4468,1092.3206 C 984.74018,1084.1714 971.39718,1071.1051 955.86296,1089.2125 C 940.7492,1093.1605 895.13974,1123.1441 899.28013,1092.9979 C 917.90028,1061.4718 924.25754,1022.4366 915.96421,986.79549 C 889.98466,973.45886 868.59009,953.48708 848.5,932.65881 C 776.8907,940.66396 704.28893,940.8778 632.74963,932.0083 C 611.86567,953.30296 588.4159,972.31687 561.39291,985.17328 C 553.76605,1023.0913 561.124,1062.9581 580.38521,1096.2634 C 573.89823,1119.7735 536.79398,1092.6323 519.82115,1089.8124 C 497.30994,1064.1909 478.00298,1096.4768 453.30851,1100.0773 C 444.39418,1100.396 429.74516,1113.1512 423.09879,1104.4427 z M 554,1083.037 C 542.5322,1053.9303 541.62608,1022.396 541.84711,991.51378 C 513.31032,987.25337 499.77546,1005.5527 505.07575,1033.3697 C 507.42103,1043.6023 499.57215,1058.7337 510.52755,1065.0724 C 522.81136,1071.2731 542.22215,1085.0188 554,1083.037 z M 1030,1083.037 C 1019.0677,1055.2133 1018.0153,1025.1353 1017.2295,995.64186 C 986.01122,992.26754 976.23594,1014.0164 981.01605,1041.993 C 978.12953,1056.6587 983.41126,1068.8452 999.63705,1072.503 C 1007.9153,1074.8817 1023.1476,1087.0586 1030,1083.037 z M 466.88144,1076.2559 C 484.2453,1072.4747 489.97896,1059.5688 487,1043.9311 C 485.07657,1027.2341 490.04522,999.79444 474.51723,990.30231 C 457.08317,978.9697 458.24852,991.97705 459.64973,1005.1526 C 461.80984,1031.6706 456.3708,1058.2515 448.67696,1083.2135 C 454.8423,1083.6857 461.14565,1078.4696 466.88144,1076.2559 z M 930.5,1082.2314 C 944.77981,1075.023 968.85654,1069.2365 963,1048.7642 C 962.47432,1027.4044 967.81986,992.99493 936.75,995.06025 C 935.94758,1024.5876 935.21314,1054.6846 924.60357,1082.6766 C 925.21614,1085.8231 929.61103,1080.9937 930.5,1082.2314 z M 993.75378,983.09546 C 1065.2387,968.95832 1112.2016,905.46607 1141.2744,843.09667 C 1177.189,766.97706 1194.8472,683.10752 1202.1512,599.58085 C 1207.4257,506.63733 1200.7412,411.34365 1169.957,322.98549 C 1139.8989,252.86892 1068.0807,215.46404 1001.0431,188.13265 C 891.49282,146.36393 771.66523,134.79419 655.44717,146.51004 C 637.52763,150.85527 596.53311,149.73235 592.48481,159.67965 C 624.89647,175.22381 660.88557,193.80981 676.45575,228.00191 C 668.42499,250.33893 643.92549,263.78603 624.37433,276.05589 C 602.73765,290.45299 573.81919,295.05875 553.57287,308.59836 C 563.23941,409.10111 541.00296,516.39991 477.4932,596.6964 C 445.41154,636.73765 396.6862,668.40713 343.5,663.33969 C 324.49237,669.7419 279.92582,643.22229 295.4266,680.08315 C 314.40028,771.52433 343.50518,866.64903 411.42394,934.11537 C 446.92848,967.38956 500.44563,991.61962 548.35682,970.82671 C 578.08707,959.68857 603.52629,939.50695 624.33374,915.83612 C 671.82791,919.33113 719.31395,925.01879 767.08382,922.53233 C 797.21872,922.33724 827.0513,917.54051 857.1496,916.71063 C 886.09537,951.41424 926.02285,980.69389 972.3788,984.70723 C 979.53669,985.11447 986.72629,984.47111 993.75378,983.09546 z M 326.40323,640.80719 C 343.08033,629.74847 334.5806,606.38698 337.04997,589.09922 C 336.69189,565.23949 297.58065,568.5837 286.5,551.76455 C 265.44324,523.82687 322.7028,552.60232 335.5782,558.83122 C 354.2103,570.90283 374.77322,537.65683 396.95099,539.24588 C 413.61288,539.27336 389.01791,564.96739 376.92689,564.34996 C 345.79039,571.57039 355.87149,605.31022 356.6125,628.5806 C 360.80717,645.28918 384.02734,647.77601 397.7381,638.13239 C 434.45198,624.24774 461.10339,593.65401 481.91758,561.49475 C 548.5271,455.78339 559.59297,315.1686 505.01104,202 C 485.36609,162.55049 448.84535,127.31787 403.69664,121.63062 C 380.93229,115.74443 359.18677,134.58556 339.00778,133.13346 C 308.54732,118.05052 270.81366,116.38896 241.89518,136.03139 C 189.39554,166.62064 165.94319,227.45774 154.45659,284.21688 C 134.87205,386.31474 156.13516,497.223 218.79684,580.96155 C 242.50046,613.45225 277.72398,640.79641 318.49196,645.40293 L 321.68419,643.90382 L 326.40323,640.8072 L 326.40323,640.80719 z M 441.12375,415.42236 C 395.60193,400.2895 381.23301,342.44319 395.09867,300.4973 C 396.78455,281.31845 422.17967,263.3423 425.71627,253.48678 C 400.48784,258.31021 412.46162,222.556 433.31703,237.44825 C 461.83769,242.50171 490.55579,251.95096 513.30403,270.3499 C 497.77707,284.4614 512.94173,299.00289 514.56593,315.61648 C 521.57742,355.17783 503.71659,406.07546 461.04955,416.25007 C 454.45532,417.46896 447.59505,417.1772 441.12375,415.42236 z M 466.65558,395.59195 C 490.22609,383.50706 498.77217,353.68547 499.33735,329.00914 C 496.02511,302.73138 483.36597,269.51916 453.04062,266.40613 C 420.24018,270.29277 406.85835,308.31005 406.66265,336.99086 C 410.06969,363.43317 423.10155,398.32591 454.43886,399.4863 C 458.74133,399.0901 462.78751,397.40396 466.65558,395.59195 z M 441.03452,363.79761 C 408.08149,352.21206 419.60011,297.78854 454.57432,300.82532 C 485.16452,300.04764 497.70094,344.96279 471.76463,360.53809 C 462.8734,366.63625 451.01839,367.7623 441.03452,363.79761 z M 222.12375,412.42236 C 173.61417,396.0991 160.54743,332.16897 179.13829,289.09142 C 189.99026,275.18878 167.72834,254.32526 196.89557,253.43592 C 225.13437,242.75846 256.11891,241.85518 285.78439,244.6505 C 293.80434,262.46582 275.67859,258.99688 272.47005,263.49514 C 309.44721,303.70955 305.14515,379.75979 256.11756,408.40366 C 245.76429,413.82767 233.46419,415.34709 222.12375,412.42236 z M 247.65558,392.59195 C 271.22609,380.50706 279.77217,350.68547 280.33735,326.00914 C 277.0159,299.79309 264.36526,266.34511 234,263.5 C 201.13902,267.12772 187.90922,305.40137 187.66265,333.99086 C 191.0697,360.43317 204.10155,395.32591 235.43886,396.4863 C 239.74133,396.0901 243.78751,394.40396 247.65558,392.59195 z M 231.03452,363.79761 C 198.08149,352.21206 209.60011,297.78854 244.57432,300.82532 C 275.16452,300.04764 287.70094,344.96279 261.76463,360.53809 C 252.8734,366.63625 241.01839,367.7623 231.03452,363.79761 z M 1216.6284,377.07065 C 1236.9536,356.68129 1251.801,330.83956 1258.0615,302.6662 C 1226.5773,252.98655 1166.8221,232.99268 1111.3789,225.43952 C 1130.4511,244.50475 1154.7152,262.11085 1169.7851,286.08482 C 1191.4167,315.67846 1197.541,352.39554 1206.1445,387 C 1209.9778,384.06226 1213.2195,380.46461 1216.6284,377.07065 z M 564.08203,282.97751 C 596.18771,271.47569 629.20029,256.63676 651,229.47626 C 627.34479,189.44031 579.46986,173.53319 537.5,159.96193 C 525.68169,159.42193 490.4419,141.09924 491.48565,152.89278 C 523.83726,189.61645 540.40953,237.29878 549.95475,284.57079 C 552.19331,290.92268 560.09968,282.35574 564.08203,282.97751 z M 138.29083,279.49323 C 147.63443,233.01138 165.36217,187.43705 196.39475,151.03342 C 176.61322,149.25557 147.50711,162.72352 125.09347,169.12174 C 94.085071,180.72081 61.773567,195.86356 42,223.4074 C 63.49678,255.398 100.4124,272.23916 135.96409,283.70968 L 137.25416,282.39569 L 138.29083,279.49322 L 138.29083,279.49323 z "
       id="path1370" />
  </g>
</svg>
